<svg width="26" height="22" viewBox="0 0 26 22" fill="none" xmlns="http://www.w3.org/2000/svg">
<path d="M23.0249 20.8V2.79999H2.7749V11.8H0.524902V2.79999C0.524902 2.18124 0.745402 1.65174 1.1864 1.21149C1.6274 0.771238 2.1569 0.550738 2.7749 0.549988H23.0249C23.6437 0.549988 24.1735 0.770488 24.6145 1.21149C25.0555 1.65249 25.2757 2.18199 25.2749 2.79999V18.55C25.2749 19.1687 25.0548 19.6986 24.6145 20.1396C24.1743 20.5806 23.6444 20.8007 23.0249 20.8ZM9.5249 12.925C8.2874 12.925 7.22803 12.4844 6.34678 11.6031C5.46553 10.7219 5.0249 9.66249 5.0249 8.42499C5.0249 7.18749 5.46553 6.12811 6.34678 5.24686C7.22803 4.36561 8.2874 3.92499 9.5249 3.92499C10.7624 3.92499 11.8218 4.36561 12.703 5.24686C13.5843 6.12811 14.0249 7.18749 14.0249 8.42499C14.0249 9.66249 13.5843 10.7219 12.703 11.6031C11.8218 12.4844 10.7624 12.925 9.5249 12.925ZM0.524902 21.925V18.775C0.524902 18.1375 0.689152 17.5517 1.01765 17.0177C1.34615 16.4837 1.7819 16.0757 2.3249 15.7937C3.4874 15.2125 4.66865 14.7767 5.86865 14.4865C7.06865 14.1962 8.2874 14.0507 9.5249 14.05C10.7624 14.0492 11.9812 14.1947 13.1812 14.4865C14.3812 14.7782 15.5624 15.214 16.7249 15.7937C17.2687 16.075 17.7048 16.483 18.0333 17.0177C18.3618 17.5525 18.5257 18.1382 18.5249 18.775V21.925H0.524902Z" fill="#1C1C1C" style="fill:#1C1C1C;fill:color(display-p3 0.1098 0.1098 0.1098);fill-opacity:1;"/>
</svg>
