<svg width="26" height="19" viewBox="0 0 26 19" fill="none" xmlns="http://www.w3.org/2000/svg">
<path d="M25.375 5.17499V16.425C25.375 17.6625 24.3625 18.675 23.125 18.675H5.125C4.50625 18.675 4 18.1687 4 17.55C4 16.9312 4.50625 16.425 5.125 16.425H23.125V5.17499C23.125 4.55624 23.6313 4.04999 24.25 4.04999C24.8687 4.04999 25.375 4.55624 25.375 5.17499ZM4 14.175C2.1325 14.175 0.625 12.6675 0.625 10.8V4.04999C0.625 2.18249 2.1325 0.674988 4 0.674988H17.5C19.3675 0.674988 20.875 2.18249 20.875 4.04999V11.925C20.875 13.1625 19.8625 14.175 18.625 14.175H4ZM7.375 7.42499C7.375 9.29249 8.8825 10.8 10.75 10.8C12.6175 10.8 14.125 9.29249 14.125 7.42499C14.125 5.55749 12.6175 4.04999 10.75 4.04999C8.8825 4.04999 7.375 5.55749 7.375 7.42499Z" fill="#1C1C1C" style="fill:#1C1C1C;fill:color(display-p3 0.1098 0.1098 0.1098);fill-opacity:1;"/>
</svg>
