<svg width="26" height="19" viewBox="0 0 26 19" fill="none" xmlns="http://www.w3.org/2000/svg">
<path d="M13.2696 0.602999C18.0351 0.602999 21.9501 4.1265 22.6116 8.703H25.4196L20.6946 14.103L15.9696 8.703H19.1016C18.7993 7.38161 18.0581 6.20168 16.9989 5.35579C15.9397 4.5099 14.6251 4.04801 13.2696 4.0455C11.3121 4.0455 9.58409 5.004 8.49059 6.4485L6.18209 3.816C7.06596 2.80594 8.1557 1.99666 9.37813 1.44249C10.6006 0.888325 11.9274 0.602087 13.2696 0.602999ZM12.7296 18.747C7.97759 18.747 4.04909 15.2235 3.38759 10.647H0.57959L5.30459 5.247C6.88409 7.0425 8.45009 8.8515 10.0296 10.647H6.89759C7.19983 11.9684 7.94104 13.1483 9.00024 13.9942C10.0594 14.8401 11.3741 15.302 12.7296 15.3045C14.6871 15.3045 16.4151 14.346 17.5086 12.9015L19.8171 15.534C18.9343 16.5454 17.8448 17.3556 16.6221 17.9099C15.3995 18.4642 14.0721 18.7497 12.7296 18.747Z" fill="#1C1C1C" style="fill:#1C1C1C;fill:color(display-p3 0.1098 0.1098 0.1098);fill-opacity:1;"/>
</svg>
